<?xml version="1.0" ?><!-- Uploaded to: SVG Repo, www.svgrepo.com, Generator: SVG Repo Mixer Tools -->
<svg fill="#000000" width="800px" height="800px" viewBox="0 0 64 64" data-name="Layer 1" id="Layer_1" xmlns="http://www.w3.org/2000/svg"><title/><path d="M2,15.01978a9.76365,9.76365,0,0,0,.7074,2.10382l2.02087.18493a8.35412,8.35412,0,0,0,.8385,1.13373L5.1239,20.376a10.21966,10.21966,0,0,0,1.83179,1.311L8.69281,20.68a8.58722,8.58722,0,0,0,1.36877.42761L10.8681,23h2.26374l.80645-1.89233a8.58966,8.58966,0,0,0,1.36872-.42762l1.73718,1.007,1.83173-1.31091L18.433,18.44244a8.34469,8.34469,0,0,0,.83863-1.13372l2.02093-.18494A9.76526,9.76526,0,0,0,22,15.0199L20.47095,13.702V12.298L22,10.98016a9.76351,9.76351,0,0,0-.70734-2.10382l-2.02093-.18493a8.35724,8.35724,0,0,0-.8385-1.13373L18.8761,5.624a10.22051,10.22051,0,0,0-1.83179-1.311L15.30719,5.32a8.574,8.574,0,0,0-1.36877-.42761L13.1319,3H10.86816l-.80645,1.89233A8.58443,8.58443,0,0,0,8.693,5.32l-1.73718-1.007A10.21827,10.21827,0,0,0,5.12408,5.62384L5.567,7.55756a8.33923,8.33923,0,0,0-.83857,1.13372l-2.02093.18494A9.75883,9.75883,0,0,0,2,10.9801l1.529,1.31781V13.702ZM12,9a4,4,0,1,1-4,4A4,4,0,0,1,12,9Z"/><rect height="8" width="8" x="5" y="54"/><rect height="11" width="8" x="20" y="51"/><rect height="15" width="8" x="35" y="47"/><rect height="24" width="8" x="50" y="38"/><path d="M36.87891,24.52344a1.001,1.001,0,0,0-.604-.48535l-7-2-.5498,1.92382,4.90051,1.40015L3.45117,45.16406l1.09766,1.67188L34.22809,27.35889,32.583,32.70605l1.91113.5879,2.46143-8A.99753.99753,0,0,0,36.87891,24.52344Z"/><polygon points="45.5 15.935 44.674 21 49 18.609 53.326 21 52.5 15.935 56 12.348 51.163 11.609 49 7 46.837 11.609 42 12.348 45.5 15.935"/><path d="M50.91992,25.81818a10.9111,10.9111,0,0,1-1.90478.16717H49a10.94684,10.94684,0,0,1-1.89941-.16522l-.34375,1.98511A19.795,19.795,0,0,0,49.01611,28a12.86532,12.86532,0,0,0,2.25147-.19873Z"/><path d="M54.50488,24.499l1.00293,1.74311a13.0404,13.0404,0,0,0,3.45313-2.92255l-1.53125-1.29651A11.05688,11.05688,0,0,1,54.50488,24.499Z"/><path d="M57.40283,7.7536a11.05242,11.05242,0,0,1,1.92237,3.322l1.877-.69647a13.049,13.049,0,0,0-2.273-3.9259Z"/><path d="M46.70605,2.01178a12.85586,12.85586,0,0,0-4.2373,1.568l1.00684,1.74115a10.8707,10.8707,0,0,1,3.583-1.326Z"/><path d="M61.22021,19.38379a13.18675,13.18675,0,0,0,.7793-4.50824l-.4414-.00787L60,14.905a11.12449,11.12449,0,0,1-.65967,3.79022Z"/><path d="M55.46387,3.54144A12.8159,12.8159,0,0,0,51.2168,2l-.33887,1.98511a10.8563,10.8563,0,0,1,3.59082,1.30334Z"/><path d="M36.78906,19.40741,38.667,18.7149a11.10956,11.10956,0,0,1-.6665-3.78723l-2,.004A13.12678,13.12678,0,0,0,36.78906,19.40741Z"/><path d="M40.583,22.03882l-1.5293,1.29846a13.04426,13.04426,0,0,0,3.4585,2.9176l1-1.745A11.03952,11.03952,0,0,1,40.583,22.03882Z"/><path d="M36.77148,10.4519l1.88086.68464a11.05087,11.05087,0,0,1,1.9043-3.33374L39.02148,6.51019A13.07675,13.07675,0,0,0,36.77148,10.4519Z"/></svg>